<svg width="32" height="32" viewBox="0 0 32 32" fill="none" xmlns="http://www.w3.org/2000/svg">
<path d="M16 1.33333C7.89665 1.33333 1.33331 7.76106 1.33331 15.6886C1.33331 22.0323 5.53531 27.4119 11.3616 29.3086C12.095 29.4437 12.3639 28.9994 12.3639 28.6183C12.3639 28.2775 12.3516 27.3742 12.3455 26.1775C8.26576 27.043 7.40531 24.2516 7.40531 24.2516C6.73798 22.5948 5.77365 22.1516 5.77365 22.1516C4.44509 21.2617 5.87631 21.28 5.87631 21.28C7.34909 21.3798 8.12276 22.7591 8.12276 22.7591C9.43054 24.954 11.556 24.3198 12.3944 23.9533C12.5264 23.0245 12.9041 22.3927 13.3233 22.0335C10.0661 21.6744 6.64265 20.44 6.64265 14.9399C6.64265 13.3732 7.21098 12.0925 8.15209 11.0881C7.98709 10.7254 7.49209 9.26574 8.28042 7.28872C8.28042 7.28872 9.50876 6.90403 12.3138 8.76053C13.4871 8.44157 14.7338 8.28332 15.9804 8.27601C17.2271 8.28332 18.4738 8.44157 19.6471 8.76053C22.4338 6.90403 23.6621 7.28872 23.6621 7.28872C24.4504 9.26574 23.9554 10.7254 23.8088 11.0881C24.7438 12.0925 25.3121 13.3732 25.3121 14.9399C25.3121 20.4546 21.8838 21.6683 18.6204 22.0214C19.1338 22.4523 19.6104 23.3325 19.6104 24.6777C19.6104 26.5987 19.5921 28.1423 19.5921 28.6086C19.5921 28.9847 19.8488 29.434 20.6004 29.2903C26.4683 27.4058 30.6666 22.0226 30.6666 15.6886C30.6666 7.76106 24.0996 1.33333 16 1.33333V1.33333Z" fill="#E6EDF3"/>
</svg>
