<svg width="32" height="32" viewBox="0 0 32 32" fill="none" xmlns="http://www.w3.org/2000/svg">
<path d="M21.5 4.5H10.5C7.18629 4.5 4.5 7.18629 4.5 10.5V21.5C4.5 24.8137 7.18629 27.5 10.5 27.5H21.5C24.8137 27.5 27.5 24.8137 27.5 21.5V10.5C27.5 7.18629 24.8137 4.5 21.5 4.5Z" stroke="#0E76A8" stroke-width="2" stroke-linecap="round" stroke-linejoin="round"/>
<path d="M12.262 11.172V21H9.868V11.172H12.262ZM18.7569 13.104C19.6716 13.104 20.3996 13.4027 20.9409 14C21.4916 14.588 21.7669 15.4 21.7669 16.436V21H19.3869V16.758C19.3869 16.2353 19.2516 15.8293 18.9809 15.54C18.7102 15.2507 18.3462 15.106 17.8889 15.106C17.4316 15.106 17.0676 15.2507 16.7969 15.54C16.5262 15.8293 16.3909 16.2353 16.3909 16.758V21H13.9969V13.188H16.3909V14.224C16.6336 13.8787 16.9602 13.608 17.3709 13.412C17.7816 13.2067 18.2436 13.104 18.7569 13.104Z" fill="#0E76A8"/>
</svg>
