<svg width="152" height="27" viewBox="0 0 152 27" fill="none" xmlns="http://www.w3.org/2000/svg">
<path d="M3.58008 12.3242L11.6543 15.2441V18.6846L0.685547 14.0381V11.6006L3.58008 12.3242ZM11.6543 9.9375L3.56738 12.9082L0.685547 13.5938V11.1562L11.6543 6.50977V9.9375ZM22.5723 2.01562L15.793 22.0869H13.0762L19.8555 2.01562H22.5723ZM148.18 12.832L140.042 9.9248V6.50977L151.1 11.1562V13.6064L148.18 12.832ZM140.042 15.2695L148.192 12.2988L151.1 11.6006V14.0381L140.042 18.6846V15.2695Z" fill="#8047F8"/>
<path d="M39.5967 2.01562V20.5H35.7881L28.3613 8.10938V20.5H24.5527V2.01562H28.3613L35.8008 14.4189V2.01562H39.5967ZM46.541 6.76367V20.5H42.8721V6.76367H46.541ZM42.6436 3.18359C42.6436 2.65039 42.8298 2.21029 43.2021 1.86328C43.5745 1.51628 44.0739 1.34277 44.7002 1.34277C45.318 1.34277 45.8132 1.51628 46.1855 1.86328C46.5664 2.21029 46.7568 2.65039 46.7568 3.18359C46.7568 3.7168 46.5664 4.1569 46.1855 4.50391C45.8132 4.85091 45.318 5.02441 44.7002 5.02441C44.0739 5.02441 43.5745 4.85091 43.2021 4.50391C42.8298 4.1569 42.6436 3.7168 42.6436 3.18359ZM53.2188 0.987305V20.5H49.5625V0.987305H53.2188ZM61.877 6.76367L55.9102 13.5684L52.7109 16.8057L51.3779 14.165L53.917 10.9404L57.4844 6.76367H61.877ZM58.0811 20.5L54.0186 14.1523L56.5449 11.9434L62.2959 20.5H58.0811ZM62.8672 13.7715V13.5049C62.8672 12.4977 63.0111 11.571 63.2988 10.7246C63.5866 9.86979 64.0055 9.12923 64.5557 8.50293C65.1058 7.87663 65.7829 7.38997 66.5869 7.04297C67.391 6.6875 68.3135 6.50977 69.3545 6.50977C70.3955 6.50977 71.3223 6.6875 72.1348 7.04297C72.9473 7.38997 73.6286 7.87663 74.1787 8.50293C74.7373 9.12923 75.1605 9.86979 75.4482 10.7246C75.736 11.571 75.8799 12.4977 75.8799 13.5049V13.7715C75.8799 14.7702 75.736 15.6969 75.4482 16.5518C75.1605 17.3981 74.7373 18.1387 74.1787 18.7734C73.6286 19.3997 72.9515 19.8864 72.1475 20.2334C71.3434 20.5804 70.4209 20.7539 69.3799 20.7539C68.3389 20.7539 67.4121 20.5804 66.5996 20.2334C65.7956 19.8864 65.1143 19.3997 64.5557 18.7734C64.0055 18.1387 63.5866 17.3981 63.2988 16.5518C63.0111 15.6969 62.8672 14.7702 62.8672 13.7715ZM66.5234 13.5049V13.7715C66.5234 14.347 66.5742 14.8844 66.6758 15.3838C66.7773 15.8831 66.9382 16.3232 67.1582 16.7041C67.3867 17.0765 67.6829 17.3685 68.0469 17.5801C68.4108 17.7917 68.8551 17.8975 69.3799 17.8975C69.8877 17.8975 70.3236 17.7917 70.6875 17.5801C71.0514 17.3685 71.3434 17.0765 71.5635 16.7041C71.7835 16.3232 71.9443 15.8831 72.0459 15.3838C72.1559 14.8844 72.2109 14.347 72.2109 13.7715V13.5049C72.2109 12.9463 72.1559 12.4215 72.0459 11.9307C71.9443 11.4313 71.7793 10.9912 71.5508 10.6104C71.3307 10.221 71.0387 9.91634 70.6748 9.69629C70.3109 9.47624 69.8708 9.36621 69.3545 9.36621C68.8382 9.36621 68.3981 9.47624 68.0342 9.69629C67.6787 9.91634 67.3867 10.221 67.1582 10.6104C66.9382 10.9912 66.7773 11.4313 66.6758 11.9307C66.5742 12.4215 66.5234 12.9463 66.5234 13.5049ZM81.9863 1V20.5H78.3174V1H81.9863ZM92.4219 17.4023V11.2832C92.4219 10.8431 92.3499 10.4665 92.2061 10.1533C92.0622 9.83171 91.8379 9.58203 91.5332 9.4043C91.237 9.22656 90.8519 9.1377 90.3779 9.1377C89.9717 9.1377 89.6204 9.20964 89.3242 9.35352C89.028 9.48893 88.7995 9.68783 88.6387 9.9502C88.4779 10.2041 88.3975 10.5046 88.3975 10.8516H84.7412C84.7412 10.2676 84.8766 9.71322 85.1475 9.18848C85.4183 8.66374 85.8118 8.20247 86.3281 7.80469C86.8444 7.39844 87.458 7.08105 88.1689 6.85254C88.8883 6.62402 89.6924 6.50977 90.5811 6.50977C91.6475 6.50977 92.5954 6.6875 93.4248 7.04297C94.2542 7.39844 94.9059 7.93164 95.3799 8.64258C95.8623 9.35352 96.1035 10.2422 96.1035 11.3086V17.1865C96.1035 17.9398 96.1501 18.5576 96.2432 19.04C96.3363 19.514 96.4717 19.9287 96.6494 20.2842V20.5H92.9551C92.7773 20.1276 92.6419 19.6621 92.5488 19.1035C92.4642 18.5365 92.4219 17.9694 92.4219 17.4023ZM92.9043 12.1338L92.9297 14.2031H90.8857C90.4033 14.2031 89.9844 14.2581 89.6289 14.3682C89.2734 14.4782 88.9814 14.6348 88.7529 14.8379C88.5244 15.0326 88.3551 15.2611 88.2451 15.5234C88.1436 15.7858 88.0928 16.0736 88.0928 16.3867C88.0928 16.6999 88.1647 16.9834 88.3086 17.2373C88.4525 17.4827 88.6598 17.6774 88.9307 17.8213C89.2015 17.9567 89.5189 18.0244 89.8828 18.0244C90.4329 18.0244 90.9111 17.9144 91.3174 17.6943C91.7236 17.4743 92.0368 17.2035 92.2568 16.8818C92.4854 16.5602 92.6038 16.2555 92.6123 15.9678L93.5771 17.5166C93.4417 17.8636 93.2555 18.2233 93.0186 18.5957C92.79 18.9681 92.498 19.3193 92.1426 19.6494C91.7871 19.971 91.3597 20.2376 90.8604 20.4492C90.361 20.6523 89.7686 20.7539 89.083 20.7539C88.2113 20.7539 87.4199 20.5804 86.709 20.2334C86.0065 19.8779 85.4479 19.3913 85.0332 18.7734C84.627 18.1471 84.4238 17.4362 84.4238 16.6406C84.4238 15.9212 84.5592 15.2822 84.8301 14.7236C85.1009 14.165 85.4987 13.6953 86.0234 13.3145C86.5566 12.9251 87.221 12.6331 88.0166 12.4385C88.8122 12.2354 89.7347 12.1338 90.7842 12.1338H92.9043ZM106.349 16.7041C106.349 16.4417 106.272 16.2048 106.12 15.9932C105.968 15.7816 105.684 15.5869 105.27 15.4092C104.863 15.223 104.275 15.0537 103.505 14.9014C102.811 14.749 102.163 14.5586 101.562 14.3301C100.97 14.0931 100.454 13.8096 100.014 13.4795C99.582 13.1494 99.2435 12.7601 98.998 12.3115C98.7526 11.8545 98.6299 11.334 98.6299 10.75C98.6299 10.1745 98.7526 9.63281 98.998 9.125C99.252 8.61719 99.6117 8.16862 100.077 7.7793C100.551 7.38151 101.127 7.07259 101.804 6.85254C102.489 6.62402 103.259 6.50977 104.114 6.50977C105.308 6.50977 106.332 6.7002 107.187 7.08105C108.05 7.46191 108.71 7.98665 109.167 8.65527C109.632 9.31543 109.865 10.0687 109.865 10.915H106.209C106.209 10.5596 106.133 10.2422 105.98 9.96289C105.837 9.67513 105.608 9.45085 105.295 9.29004C104.99 9.12077 104.592 9.03613 104.102 9.03613C103.695 9.03613 103.344 9.10807 103.048 9.25195C102.752 9.38737 102.523 9.57357 102.362 9.81055C102.21 10.0391 102.134 10.293 102.134 10.5723C102.134 10.7839 102.176 10.9743 102.261 11.1436C102.354 11.3044 102.502 11.4525 102.705 11.5879C102.908 11.7233 103.171 11.8503 103.492 11.9688C103.822 12.0788 104.229 12.1803 104.711 12.2734C105.701 12.4766 106.586 12.7432 107.364 13.0732C108.143 13.3949 108.761 13.835 109.218 14.3936C109.675 14.9437 109.903 15.6673 109.903 16.5645C109.903 17.1738 109.768 17.7324 109.497 18.2402C109.226 18.748 108.837 19.1924 108.329 19.5732C107.821 19.9456 107.212 20.2376 106.501 20.4492C105.799 20.6523 105.007 20.7539 104.127 20.7539C102.849 20.7539 101.766 20.5254 100.877 20.0684C99.9967 19.6113 99.3281 19.0316 98.8711 18.3291C98.4225 17.6182 98.1982 16.8903 98.1982 16.1455H101.664C101.681 16.6449 101.808 17.0469 102.045 17.3516C102.29 17.6562 102.599 17.8763 102.972 18.0117C103.353 18.1471 103.763 18.2148 104.203 18.2148C104.677 18.2148 105.071 18.1514 105.384 18.0244C105.697 17.889 105.934 17.7113 106.095 17.4912C106.264 17.2627 106.349 17.0003 106.349 16.7041ZM112.455 18.7354C112.455 18.1937 112.641 17.7409 113.014 17.377C113.395 17.013 113.898 16.8311 114.524 16.8311C115.151 16.8311 115.65 17.013 116.022 17.377C116.403 17.7409 116.594 18.1937 116.594 18.7354C116.594 19.277 116.403 19.7298 116.022 20.0938C115.65 20.4577 115.151 20.6396 114.524 20.6396C113.898 20.6396 113.395 20.4577 113.014 20.0938C112.641 19.7298 112.455 19.277 112.455 18.7354ZM120.021 6.76367H123.69V21.3252C123.69 22.3408 123.504 23.1999 123.132 23.9023C122.759 24.6048 122.222 25.138 121.52 25.502C120.817 25.8659 119.966 26.0479 118.968 26.0479C118.655 26.0479 118.35 26.0309 118.054 25.9971C117.749 25.9632 117.436 25.9082 117.114 25.832L117.127 23.0264C117.33 23.0602 117.529 23.0856 117.724 23.1025C117.91 23.1279 118.1 23.1406 118.295 23.1406C118.676 23.1406 118.993 23.0771 119.247 22.9502C119.501 22.8232 119.691 22.6243 119.818 22.3535C119.954 22.0911 120.021 21.7484 120.021 21.3252V6.76367ZM119.729 3.18359C119.729 2.65039 119.916 2.21029 120.288 1.86328C120.669 1.51628 121.168 1.34277 121.786 1.34277C122.412 1.34277 122.912 1.51628 123.284 1.86328C123.657 2.21029 123.843 2.65039 123.843 3.18359C123.843 3.7168 123.657 4.1569 123.284 4.50391C122.912 4.85091 122.412 5.02441 121.786 5.02441C121.168 5.02441 120.669 4.85091 120.288 4.50391C119.916 4.1569 119.729 3.7168 119.729 3.18359ZM134.024 16.7041C134.024 16.4417 133.948 16.2048 133.796 15.9932C133.644 15.7816 133.36 15.5869 132.945 15.4092C132.539 15.223 131.951 15.0537 131.181 14.9014C130.487 14.749 129.839 14.5586 129.238 14.3301C128.646 14.0931 128.13 13.8096 127.689 13.4795C127.258 13.1494 126.919 12.7601 126.674 12.3115C126.428 11.8545 126.306 11.334 126.306 10.75C126.306 10.1745 126.428 9.63281 126.674 9.125C126.928 8.61719 127.287 8.16862 127.753 7.7793C128.227 7.38151 128.802 7.07259 129.479 6.85254C130.165 6.62402 130.935 6.50977 131.79 6.50977C132.983 6.50977 134.007 6.7002 134.862 7.08105C135.726 7.46191 136.386 7.98665 136.843 8.65527C137.308 9.31543 137.541 10.0687 137.541 10.915H133.885C133.885 10.5596 133.809 10.2422 133.656 9.96289C133.512 9.67513 133.284 9.45085 132.971 9.29004C132.666 9.12077 132.268 9.03613 131.777 9.03613C131.371 9.03613 131.02 9.10807 130.724 9.25195C130.427 9.38737 130.199 9.57357 130.038 9.81055C129.886 10.0391 129.81 10.293 129.81 10.5723C129.81 10.7839 129.852 10.9743 129.937 11.1436C130.03 11.3044 130.178 11.4525 130.381 11.5879C130.584 11.7233 130.846 11.8503 131.168 11.9688C131.498 12.0788 131.904 12.1803 132.387 12.2734C133.377 12.4766 134.261 12.7432 135.04 13.0732C135.819 13.3949 136.437 13.835 136.894 14.3936C137.351 14.9437 137.579 15.6673 137.579 16.5645C137.579 17.1738 137.444 17.7324 137.173 18.2402C136.902 18.748 136.513 19.1924 136.005 19.5732C135.497 19.9456 134.888 20.2376 134.177 20.4492C133.474 20.6523 132.683 20.7539 131.803 20.7539C130.525 20.7539 129.441 20.5254 128.553 20.0684C127.673 19.6113 127.004 19.0316 126.547 18.3291C126.098 17.6182 125.874 16.8903 125.874 16.1455H129.34C129.357 16.6449 129.484 17.0469 129.721 17.3516C129.966 17.6562 130.275 17.8763 130.647 18.0117C131.028 18.1471 131.439 18.2148 131.879 18.2148C132.353 18.2148 132.746 18.1514 133.06 18.0244C133.373 17.889 133.61 17.7113 133.771 17.4912C133.94 17.2627 134.024 17.0003 134.024 16.7041Z" fill="white"/>
</svg>
